<svg width="250" height="98" viewBox="0 0 250 98" fill="none" xmlns="http://www.w3.org/2000/svg">
<path d="M46.6655 21.2253C46.6655 16.1514 50.8055 12 55.8655 12H124.866C126.086 12 127.256 12.486 128.118 13.351C128.981 14.216 129.466 15.3893 129.466 16.6126V21.2253H55.8655V25.8379H134.066C135.286 25.8379 136.456 26.3239 137.318 27.1889C138.181 28.054 138.666 29.2272 138.666 30.4506V76.5769C138.666 79.0236 137.696 81.3701 135.971 83.1002C134.246 84.8303 131.906 85.8022 129.466 85.8022H55.8655C53.4255 85.8022 51.0855 84.8303 49.3601 83.1002C47.6348 81.3701 46.6655 79.0236 46.6655 76.5769V21.2253Z" fill="#E4E4E4"/>
<path d="M22.3789 75.9C18.8789 75.9 15.7289 75.1 12.9289 73.5C10.1289 71.9 7.90391 69.65 6.25391 66.75C4.65391 63.8 3.85391 60.35 3.85391 56.4C3.85391 52.45 4.67891 49.025 6.32891 46.125C7.97891 43.175 10.2039 40.9 13.0039 39.3C15.8539 37.7 19.0289 36.9 22.5289 36.9C26.0289 36.9 29.1789 37.7 31.9789 39.3C34.7789 40.9 36.9789 43.175 38.5789 46.125C40.2289 49.025 41.0539 52.45 41.0539 56.4C41.0539 60.35 40.2289 63.8 38.5789 66.75C36.9289 69.65 34.6789 71.9 31.8289 73.5C29.0289 75.1 25.8789 75.9 22.3789 75.9ZM22.3789 70.5C24.5289 70.5 26.5289 69.975 28.3789 68.925C30.2289 67.875 31.7289 66.3 32.8789 64.2C34.0289 62.1 34.6039 59.5 34.6039 56.4C34.6039 53.3 34.0289 50.7 32.8789 48.6C31.7789 46.5 30.3039 44.925 28.4539 43.875C26.6039 42.825 24.6289 42.3 22.5289 42.3C20.3789 42.3 18.3789 42.825 16.5289 43.875C14.6789 44.925 13.1789 46.5 12.0289 48.6C10.8789 50.7 10.3039 53.3 10.3039 56.4C10.3039 59.5 10.8789 62.1 12.0289 64.2C13.1789 66.3 14.6539 67.875 16.4539 68.925C18.3039 69.975 20.2789 70.5 22.3789 70.5ZM157.755 75.9C154.655 75.9 152.08 75.375 150.03 74.325C147.98 73.275 146.455 71.875 145.455 70.125C144.455 68.375 143.955 66.475 143.955 64.425C143.955 60.625 145.405 57.7 148.305 55.65C151.205 53.6 155.155 52.575 160.155 52.575H170.205V52.125C170.205 48.875 169.355 46.425 167.655 44.775C165.955 43.075 163.68 42.225 160.83 42.225C158.38 42.225 156.255 42.85 154.455 44.1C152.705 45.3 151.605 47.075 151.155 49.425H144.705C144.955 46.725 145.855 44.45 147.405 42.6C149.005 40.75 150.98 39.35 153.33 38.4C155.68 37.4 158.18 36.9 160.83 36.9C166.03 36.9 169.93 38.3 172.53 41.1C175.18 43.85 176.505 47.525 176.505 52.125V75H170.88L170.505 68.325C169.455 70.425 167.905 72.225 165.855 73.725C163.855 75.175 161.155 75.9 157.755 75.9ZM158.73 70.575C161.13 70.575 163.18 69.95 164.88 68.7C166.63 67.45 167.955 65.825 168.855 63.825C169.755 61.825 170.205 59.725 170.205 57.525V57.45H160.68C156.98 57.45 154.355 58.1 152.805 59.4C151.305 60.65 150.555 62.225 150.555 64.125C150.555 66.075 151.255 67.65 152.655 68.85C154.105 70 156.13 70.575 158.73 70.575ZM187.831 75V37.8H193.531L193.981 43.2C195.181 41.2 196.781 39.65 198.781 38.55C200.781 37.45 203.031 36.9 205.531 36.9C208.481 36.9 211.006 37.5 213.106 38.7C215.256 39.9 216.906 41.725 218.056 44.175C219.356 41.925 221.131 40.15 223.381 38.85C225.681 37.55 228.156 36.9 230.806 36.9C235.256 36.9 238.806 38.25 241.456 40.95C244.106 43.6 245.431 47.7 245.431 53.25V75H239.206V53.925C239.206 50.075 238.431 47.175 236.881 45.225C235.331 43.275 233.106 42.3 230.206 42.3C227.206 42.3 224.706 43.475 222.706 45.825C220.756 48.125 219.781 51.425 219.781 55.725V75H213.481V53.925C213.481 50.075 212.706 47.175 211.156 45.225C209.606 43.275 207.381 42.3 204.481 42.3C201.531 42.3 199.056 43.475 197.056 45.825C195.106 48.125 194.131 51.425 194.131 55.725V75H187.831Z" fill="#E7E7E7"/>
<path d="M69.6137 75.9C65.8137 75.9 62.4637 75.075 59.5637 73.425C56.6637 71.775 54.3637 69.475 52.6637 66.525C51.0137 63.575 50.1887 60.2 50.1887 56.4C50.1887 52.6 51.0137 49.225 52.6637 46.275C54.3637 43.325 56.6637 41.025 59.5637 39.375C62.4637 37.725 65.8137 36.9 69.6137 36.9C74.3637 36.9 78.3637 38.15 81.6137 40.65C84.8637 43.1 86.9387 46.5 87.8387 50.85H77.7137C77.2137 49.05 76.2137 47.65 74.7137 46.65C73.2637 45.6 71.5387 45.075 69.5387 45.075C66.8887 45.075 64.6387 46.075 62.7887 48.075C60.9387 50.075 60.0137 52.85 60.0137 56.4C60.0137 59.95 60.9387 62.725 62.7887 64.725C64.6387 66.725 66.8887 67.725 69.5387 67.725C71.5387 67.725 73.2637 67.225 74.7137 66.225C76.2137 65.225 77.2137 63.8 77.7137 61.95H87.8387C86.9387 66.15 84.8637 69.525 81.6137 72.075C78.3637 74.625 74.3637 75.9 69.6137 75.9ZM116.459 75.9C112.659 75.9 109.309 75.075 106.409 73.425C103.509 71.775 101.209 69.475 99.5094 66.525C97.8594 63.575 97.0344 60.2 97.0344 56.4C97.0344 52.6 97.8594 49.225 99.5094 46.275C101.209 43.325 103.509 41.025 106.409 39.375C109.309 37.725 112.659 36.9 116.459 36.9C121.209 36.9 125.209 38.15 128.459 40.65C131.709 43.1 133.784 46.5 134.684 50.85H124.559C124.059 49.05 123.059 47.65 121.559 46.65C120.109 45.6 118.384 45.075 116.384 45.075C113.734 45.075 111.484 46.075 109.634 48.075C107.784 50.075 106.859 52.85 106.859 56.4C106.859 59.95 107.784 62.725 109.634 64.725C111.484 66.725 113.734 67.725 116.384 67.725C118.384 67.725 120.109 67.225 121.559 66.225C123.059 65.225 124.059 63.8 124.559 61.95H134.684C133.784 66.15 131.709 69.525 128.459 72.075C125.209 74.625 121.209 75.9 116.459 75.9Z" fill="#272727"/>
</svg>
